<?xml version="1.0" encoding="UTF-8" standalone="no"?>
<svg width="15px" height="14px" viewBox="0 0 15 14" version="1.1" xmlns="http://www.w3.org/2000/svg" xmlns:xlink="http://www.w3.org/1999/xlink">
    <!-- Generator: sketchtool 3.6.1 (26313) - http://www.bohemiancoding.com/sketch -->
    <title>btn_back</title>
    <desc>Created with sketchtool.</desc>
    <defs></defs>
    <g id="Tour-White" stroke="none" stroke-width="1" fill="none" fill-rule="evenodd" opacity="0.9">
        <g id="Tour-—-step-1" transform="translate(-663.000000, -258.000000)" fill="#36A1E4">
            <g id="Tour">
                <g id="Group-4" transform="translate(643.000000, 115.000000)">
                    <g id="Group-3" transform="translate(20.000000, 133.000000)">
                        <g id="Group" transform="translate(0.000000, 5.000000)">
                            <path d="M7.36559519,6.70582704 C7.74724418,6.32417805 7.75286507,5.68539218 7.36234078,5.29486789 C6.96909383,4.90162093 6.34010856,4.90288655 5.95138163,5.29161348 L0.28801856,10.9549765 C0.0977241422,11.145271 0.000915204265,11.399493 8.54860296e-05,11.6549927 C-0.00330512558,11.9152911 0.0941905321,12.1688533 0.28801856,12.3626813 L5.95138163,18.0260444 C6.33303062,18.4076933 6.97181649,18.4133142 7.36234078,18.0227899 C7.75558774,17.629543 7.75432212,17.0005577 7.36559519,16.6118308 L3.41259331,12.6588289 L13.6527607,12.6588289 C14.199473,12.6588289 14.655234,12.2111137 14.655234,11.6588289 C14.655234,11.1026937 14.2064114,10.6588289 13.6527607,10.6588289 L3.41259331,10.6588289 L7.36559519,6.70582704 Z" id="btn_back"></path>
                        </g>
                    </g>
                </g>
            </g>
        </g>
    </g>
</svg>