<?xml version="1.0" encoding="UTF-8" standalone="no"?>
<svg width="111px" height="111px" viewBox="0 0 111 111" version="1.1" xmlns="http://www.w3.org/2000/svg" xmlns:xlink="http://www.w3.org/1999/xlink" xmlns:sketch="http://www.bohemiancoding.com/sketch/ns">
    <!-- Generator: bin/sketchtool 1.4 (305) - http://www.bohemiancoding.com/sketch -->
    <title>icn_support</title>
    <desc>Created with bin/sketchtool.</desc>
    <defs>
        <filter x="-50%" y="-50%" width="200%" height="200%" filterUnits="objectBoundingBox" id="filter-1">
            <feOffset dx="0" dy="-3" in="SourceAlpha" result="shadowOffsetInner1"></feOffset>
            <feGaussianBlur stdDeviation="0" in="shadowOffsetInner1" result="shadowBlurInner1"></feGaussianBlur>
            <feComposite in="shadowBlurInner1" in2="SourceAlpha" operator="arithmetic" k2="-1" k3="1" result="shadowInnerInner1"></feComposite>
            <feColorMatrix values="0 0 0 0 0   0 0 0 0 0   0 0 0 0 0  0 0 0 0.14 0" in="shadowInnerInner1" type="matrix" result="shadowMatrixInner1"></feColorMatrix>
            <feMerge>
                <feMergeNode in="SourceGraphic"></feMergeNode>
                <feMergeNode in="shadowMatrixInner1"></feMergeNode>
            </feMerge>
        </filter>
        <filter x="-50%" y="-50%" width="200%" height="200%" filterUnits="objectBoundingBox" id="filter-2">
            <feOffset dx="0" dy="-3" in="SourceAlpha" result="shadowOffsetInner1"></feOffset>
            <feGaussianBlur stdDeviation="0" in="shadowOffsetInner1" result="shadowBlurInner1"></feGaussianBlur>
            <feComposite in="shadowBlurInner1" in2="SourceAlpha" operator="arithmetic" k2="-1" k3="1" result="shadowInnerInner1"></feComposite>
            <feColorMatrix values="0 0 0 0 0   0 0 0 0 0   0 0 0 0 0  0 0 0 0.07 0" in="shadowInnerInner1" type="matrix" result="shadowMatrixInner1"></feColorMatrix>
            <feMerge>
                <feMergeNode in="SourceGraphic"></feMergeNode>
                <feMergeNode in="shadowMatrixInner1"></feMergeNode>
            </feMerge>
        </filter>
    </defs>
    <g id="Projects" stroke="none" stroke-width="1" fill="none" fill-rule="evenodd" sketch:type="MSPage">
        <g id="Help-Message" sketch:type="MSArtboardGroup" transform="translate(-545.000000, -261.000000)">
            <g id="Choose-page-or-profile-Popup" sketch:type="MSLayerGroup">
                <g id="Modal" transform="translate(330.000000, 12.000000)" sketch:type="MSShapeGroup">
                    <g id="Group" transform="translate(0.000000, 209.000000)">
                        <g id="icn_support" transform="translate(215.000000, 40.000000)">
                            <path d="M42.0185258,35.6414256 C42.006207,35.2624637 42,34.8819567 42,34.5 C42,24.4549948 46.2929618,15.4126645 53.1442756,9.10761896 C47.9241093,5.26827685 41.4769469,3 34.5,3 C17.1030304,3 3,17.1030304 3,34.5 C3,41.4769469 5.26827685,47.9241093 9.10761896,53.1442756 L9.10761896,53.1442756 C15.4126645,46.2929618 24.4549948,42 34.5,42 C34.8819567,42 35.2624637,42.006207 35.6414256,42.0185258 C34.995824,42.9676677 34.4164838,43.9655164 33.9100615,45.0054136 C16.7853199,45.3199429 3,59.3001045 3,76.5 C3,93.8969696 17.1030304,108 34.5,108 C51.6998955,108 65.6800571,94.2146801 65.9945864,77.0899385 C67.0344833,76.5835163 68.0323317,76.0041763 68.9814791,75.358571 C68.993793,75.7375363 69,76.1180433 69,76.5 C69,86.5450052 64.7070382,95.5873355 57.8557244,101.892381 C63.0758907,105.731723 69.5230531,108 76.5,108 C93.8969696,108 108,93.8969696 108,76.5 C108,59.3001045 94.2146801,45.3199429 77.0899385,45.0054136 C76.5835163,43.9655167 76.0041762,42.9676682 75.3585709,42.0185206 C75.7375363,42.006207 76.1180433,42 76.5,42 C86.5450052,42 95.5873355,46.2929618 101.892381,53.1442756 L101.892381,53.1442756 C105.731723,47.9241093 108,41.4769469 108,34.5 C108,17.1030304 93.8969696,3 76.5,3 C59.3001045,3 45.3199429,16.7853199 45.0054136,33.9100615 C43.9655164,34.4164838 42.9676677,34.995824 42.01852,35.6414296 Z M7.12537469,55.5 C2.65659557,49.6834225 0,42.4019518 0,34.5 C0,15.4461761 15.4461761,0 34.5,0 C42.4019518,0 49.6834225,2.65659557 55.5,7.12537469 C61.3165775,2.65659557 68.5980482,0 76.5,0 C95.5538239,0 111,15.4461761 111,34.5 C111,42.4019518 108.343404,49.6834225 103.874625,55.5 C108.343404,61.3165775 111,68.5980482 111,76.5 C111,95.5538239 95.5538239,111 76.5,111 C68.5980482,111 61.3165775,108.343404 55.5,103.874625 C49.6834225,108.343404 42.4019518,111 34.5,111 C15.4461761,111 0,95.5538239 0,76.5 C0,68.5980482 2.65659557,61.3165775 7.12537469,55.5 L7.12537469,55.5 Z" id="Oval-202" fill="#71674F"></path>
                            <path d="M55.5,109.5 C85.3233765,109.5 109.5,85.3233765 109.5,55.5 C109.5,25.6766235 85.3233765,1.5 55.5,1.5 C25.6766235,1.5 1.5,25.6766235 1.5,55.5 C1.5,85.3233765 25.6766235,109.5 55.5,109.5 Z M55.5,79.5 C68.754834,79.5 79.5,68.754834 79.5,55.5 C79.5,42.245166 68.754834,31.5 55.5,31.5 C42.245166,31.5 31.5,42.245166 31.5,55.5 C31.5,68.754834 42.245166,79.5 55.5,79.5 Z" id="Oval-200" fill="#DC5B30" filter="url(#filter-1)"></path>
                            <path d="M89.2289967,13.2857219 C89.2289967,13.2857219 91.1656693,14.798137 93.6837662,17.3162338 C96.201863,19.8343307 97.7142781,21.7710033 97.7142781,21.7710033 L76.1597297,43.3255517 C76.1597297,43.3255517 74.8736852,40.9325597 72.4705627,38.5294373 C70.0674403,36.1263148 67.6744483,34.8402703 67.6744483,34.8402703 L89.2289967,13.2857219 L89.2289967,13.2857219 Z M13.2857031,89.2290155 C13.2857031,89.2290155 14.798137,91.1656693 17.3162338,93.6837662 C19.8343307,96.201863 21.7709845,97.7142969 21.7709845,97.7142969 L43.3236217,76.1616597 C43.3236217,76.1616597 40.9306788,74.8755661 38.5275563,72.4724437 C36.1244339,70.0693212 34.8383403,67.6763783 34.8383403,67.6763783 L13.2857031,89.2290155 L13.2857031,89.2290155 Z M21.7709845,13.2857031 C21.7709845,13.2857031 19.8343307,14.798137 17.3162338,17.3162338 C14.798137,19.8343307 13.2857031,21.7709845 13.2857031,21.7709845 L34.8383403,43.3236217 C34.8383403,43.3236217 36.1244339,40.9306788 38.5275563,38.5275563 C40.9306788,36.1244339 43.3236217,34.8383403 43.3236217,34.8383403 L21.7709845,13.2857031 L21.7709845,13.2857031 Z M97.7142969,89.2290155 C97.7142969,89.2290155 96.201863,91.1656693 93.6837662,93.6837662 C91.1656693,96.201863 89.2290155,97.7142969 89.2290155,97.7142969 L67.6763783,76.1616597 C67.6763783,76.1616597 70.0693212,74.8755661 72.4724437,72.4724437 C74.8755661,70.0693212 76.1616597,67.6763783 76.1616597,67.6763783 L97.7142969,89.2290155 L97.7142969,89.2290155 Z" id="Rectangle-643" fill="#EAECED" filter="url(#filter-2)"></path>
                        </g>
                    </g>
                </g>
            </g>
        </g>
    </g>
</svg>