<?xml version="1.0" encoding="UTF-8" standalone="no"?>
<svg width="88px" height="73px" viewBox="0 0 88 73" version="1.1" xmlns="http://www.w3.org/2000/svg" xmlns:xlink="http://www.w3.org/1999/xlink">
    <!-- Generator: sketchtool 3.6.1 (26313) - http://www.bohemiancoding.com/sketch -->
    <title>icn_arrow</title>
    <desc>Created with sketchtool.</desc>
    <defs></defs>
    <g id="Tour-White" stroke="none" stroke-width="1" fill="none" fill-rule="evenodd">
        <g id="Tour-—-step-1" transform="translate(-943.000000, -32.000000)" fill="#FFFFFF">
            <g id="Tour">
                <g id="icn_arrow" transform="translate(987.000000, 68.500000) scale(-1, 1) translate(-987.000000, -68.500000) translate(943.000000, 32.000000)">
                    <path d="M87.9998127,71.9842127 C87.9678172,71.8245782 84.5613006,55.8920511 73.3638895,39.6941316 C63.0093589,24.7174165 43.3811441,7.46590894 10.4628153,4.30314917 C10.1068658,4.26922683 9.78591134,4.454802 9.60793659,4.74613508 C9.42796213,5.03846587 9.43396128,5.39963907 9.62193461,5.67401097 L16.940896,12.00851 L2.99587485,3.15477804 C6.09043573,2.90734447 12.1045823,4.08365165 25.3706998,2.86444268 L23.5709552,0 C7.73920177,2.61002509 0.919169542,1.57439587 0.863177487,1.57838673 C0.505228281,1.60332964 0.189273115,1.83280432 0.060291418,2.1620506 C-0.0686902793,2.49029917 0.0122982283,2.85646095 0.268261907,3.09092421 L21.7182181,18.3529861 C22.043172,18.6523009 22.5560992,18.655294 22.910049,18.3609678 C23.2619991,18.0666416 23.3409879,17.569779 23.0920232,17.2066104 L12.1555751,6.17785756 C43.5121255,8.8028484 61.8905176,26.2888193 71.8341066,40.6529367 C82.860542,56.5794775 84.3983237,72.6586688 84.4313191,72.8153102 C86.2155661,72.3997641 87.9998127,71.9842127 87.9998127,71.9842127 Z"></path>
                </g>
            </g>
        </g>
    </g>
</svg>