<?xml version="1.0" encoding="UTF-8" standalone="no"?>
<svg width="132px" height="82px" viewBox="0 0 132 82" version="1.1" xmlns="http://www.w3.org/2000/svg" xmlns:xlink="http://www.w3.org/1999/xlink" xmlns:sketch="http://www.bohemiancoding.com/sketch/ns">
    <!-- Generator: bin/sketchtool 1.4 (305) - http://www.bohemiancoding.com/sketch -->
    <title>img_arrow</title>
    <desc>Created with bin/sketchtool.</desc>
    <defs></defs>
    <g id="Marketing-Plan" stroke="none" stroke-width="1" fill="none" fill-rule="evenodd" sketch:type="MSPage">
        <g id="2.-Positions-—-Marketing-Plan-(Own-Empty)" sketch:type="MSArtboardGroup" transform="translate(-793.000000, -494.000000)" stroke="#2B9FE6" stroke-width="4">
            <g id="img_arrow" sketch:type="MSLayerGroup" transform="translate(795.000000, 495.000000)">
                <path d="M1,6.87084136 C1,6.87084136 33.342355,0.696353919 70.6833884,21.6062119 C108.024422,42.5160699 122.917431,78.5126328 122.917431,78.5126328" id="Line" stroke-linecap="square" sketch:type="MSShapeGroup" transform="translate(61.958716, 42.266120) scale(1, -1) translate(-61.958716, -42.266120) "></path>
                <path d="M128.362156,28.8232472 C128.15716,24.9031003 128.01085,23.0580662 127.433699,19.1758093 C126.691887,14.1859478 123.144482,-0.536296841 124.105987,4.41533484 C129.636957,32.8991397 135.624584,30.6881951 119.792152,29.1061623 C112.736506,28.4011371 107.561925,24.3291314 100.554692,23.2389301 C96.6849085,22.6368603 106.95787,25.6404349 110.61119,26.6269652 C114.264509,27.6134956 118.160239,28.5814346 122.117659,29.0617236 L128.362156,28.8232472 L128.362156,28.8232472 Z" id="Path-139" sketch:type="MSShapeGroup" transform="translate(114.834862, 16.666667) scale(1, -1) rotate(10.000000) translate(-114.834862, -16.666667) "></path>
            </g>
        </g>
    </g>
</svg>