<?xml version="1.0" encoding="UTF-8" standalone="no"?>
<svg width="17px" height="17px" viewBox="0 0 17 17" version="1.1" xmlns="http://www.w3.org/2000/svg" xmlns:xlink="http://www.w3.org/1999/xlink" xmlns:sketch="http://www.bohemiancoding.com/sketch/ns">
    <!-- Generator: bin/sketchtool 1.4 (305) - http://www.bohemiancoding.com/sketch -->
    <title>icn_onPage</title>
    <desc>Created with bin/sketchtool.</desc>
    <defs></defs>
    <g id="Marketing-Plan" stroke="none" stroke-width="1" fill="none" fill-rule="evenodd" sketch:type="MSPage">
        <g id="Positions-—-Marketing-Plan" sketch:type="MSArtboardGroup" transform="translate(-780.000000, -297.000000)" fill="#434343" opacity="0.6">
            <g id="Group" sketch:type="MSLayerGroup" transform="translate(130.000000, 183.000000)">
                <g id="On-page" transform="translate(650.000000, 113.000000)" sketch:type="MSShapeGroup">
                    <path d="M9,8 L9,7 L4,5 L4,7 L6.5,8 L4,9 L4,11 L9,9 L9,8 Z M0,3.00010618 C0,1.89547804 0.890058413,1 2.00010618,1 L14.9998938,1 C16.104522,1 17,1.89005841 17,3.00010618 L17,15.9998938 C17,17.104522 16.1099416,18 14.9998938,18 L2.00010618,18 C0.895478039,18 0,17.1099416 0,15.9998938 L0,3.00010618 Z M2,3.99850233 C2,3.44704472 2.44748943,3 2.99850233,3 L14.0014977,3 C14.5529553,3 15,3.44748943 15,3.99850233 L15,15.0014977 C15,15.5529553 14.5525106,16 14.0014977,16 L2.99850233,16 C2.44704472,16 2,15.5525106 2,15.0014977 L2,3.99850233 Z M9,11 L13,11 L13,13 L9,13 L9,11 Z" id="icn_onPage"></path>
                </g>
            </g>
        </g>
    </g>
</svg>