<?xml version="1.0" encoding="UTF-8" standalone="no"?>
<svg width="17px" height="17px" viewBox="0 0 17 17" version="1.1" xmlns="http://www.w3.org/2000/svg" xmlns:xlink="http://www.w3.org/1999/xlink" xmlns:sketch="http://www.bohemiancoding.com/sketch/ns">
    <!-- Generator: bin/sketchtool 1.4 (305) - http://www.bohemiancoding.com/sketch -->
    <title>icn_keywordResearch</title>
    <desc>Created with bin/sketchtool.</desc>
    <defs></defs>
    <g id="Marketing-Plan" stroke="none" stroke-width="1" fill="none" fill-rule="evenodd" sketch:type="MSPage">
        <g id="Positions-—-Marketing-Plan" sketch:type="MSArtboardGroup" transform="translate(-450.000000, -297.000000)" fill="#434343" opacity="0.6">
            <g id="Group" sketch:type="MSLayerGroup" transform="translate(130.000000, 183.000000)">
                <g id="Keywords" transform="translate(320.000000, 113.000000)" sketch:type="MSShapeGroup">
                    <path d="M10.210625,8.89295827 C10.59525,8.14849994 10.8176667,7.30487494 10.8176667,6.40883327 C10.8176667,3.42249994 8.395875,0.999999936 5.40883333,0.999999936 C2.4225,0.999291603 0,3.4217916 0,6.40883327 C0,9.39587494 2.4225,11.8183749 5.40883333,11.8183749 C6.30558333,11.8183749 7.1485,11.5966666 7.89225,11.2106249 L10.8176667,14.1353333 L12.3639583,14.1353333 L12.3639583,15.6816249 L13.9088333,15.6816249 L13.9088333,17.2272083 L14.681625,17.9999999 L17,17.9999999 L17,15.6816249 L10.210625,8.89295827 L10.210625,8.89295827 Z M3.895125,6.6666666 C2.91833333,6.6666666 2.125,5.8740416 2.125,4.89583327 C2.125,3.91762494 2.91833333,3.12499994 3.895125,3.12499994 C4.87404167,3.12499994 5.66666667,3.91762494 5.66666667,4.89583327 C5.66666667,5.8740416 4.87404167,6.6666666 3.895125,6.6666666 L3.895125,6.6666666 Z" id="icn_keywordResearch"></path>
                </g>
            </g>
        </g>
    </g>
</svg>