<?xml version="1.0" encoding="UTF-8" standalone="no"?>
<svg width="17px" height="17px" viewBox="0 0 17 17" version="1.1" xmlns="http://www.w3.org/2000/svg" xmlns:xlink="http://www.w3.org/1999/xlink" xmlns:sketch="http://www.bohemiancoding.com/sketch/ns">
    <!-- Generator: bin/sketchtool 1.4 (305) - http://www.bohemiancoding.com/sketch -->
    <title>icn_socialMedia</title>
    <desc>Created with bin/sketchtool.</desc>
    <defs></defs>
    <g id="Marketing-Plan" stroke="none" stroke-width="1" fill="none" fill-rule="evenodd" sketch:type="MSPage">
        <g id="Positions-—-Marketing-Plan" sketch:type="MSArtboardGroup" transform="translate(-450.000000, -364.000000)" fill="#434343" opacity="0.6">
            <g id="Group" sketch:type="MSLayerGroup" transform="translate(130.000000, 183.000000)">
                <g id="Backlinks" transform="translate(320.000000, 180.000000)" sketch:type="MSShapeGroup">
                    <path d="M8.5,18 C13.1944204,18 17,14.1944204 17,9.5 C17,4.80557963 13.1944204,1 8.5,1 C3.80557963,1 0,4.80557963 0,9.5 C0,14.1944204 3.80557963,18 8.5,18 Z M8.5,16.5952381 C12.4185918,16.5952381 15.5952381,13.4185918 15.5952381,9.5 C15.5952381,5.5814082 12.4185918,2.4047619 8.5,2.4047619 C4.5814082,2.4047619 1.4047619,5.5814082 1.4047619,9.5 C1.4047619,13.4185918 4.5814082,16.5952381 8.5,16.5952381 Z M9.65735339,9.25634683 C10.2580392,8.67282518 10.6791466,7.73386062 10.6791466,6.8094322 C10.6791466,5.38800668 9.671485,4.64285714 8.50036897,4.64285714 C7.328515,4.64285714 6.32638798,5.38766058 6.32638798,6.8094322 C6.32638798,7.7376677 6.78538872,8.68043934 7.39308504,9.2625766 C7.62996484,9.84540605 7.20638538,10.0617175 7.11783218,10.091828 C5.8913704,10.5081842 4.45238095,11.2664855 4.45238095,12.015096 L4.45238095,12.2957817 C4.45238095,13.3157332 6.56068499,13.547619 8.51180709,13.547619 C10.465881,13.547619 12.547619,13.3157332 12.547619,12.2957817 L12.547619,12.015096 C12.547619,11.2439891 11.1420953,10.4915715 9.8551222,10.091828 C9.7964557,10.0738309 9.42563919,9.91704839 9.65735339,9.25634683 Z" id="icn_socialMedia"></path>
                </g>
            </g>
        </g>
    </g>
</svg>