<?xml version="1.0" encoding="UTF-8" standalone="no"?>
<svg width="12px" height="13px" viewBox="0 0 12 13" version="1.1" xmlns="http://www.w3.org/2000/svg" xmlns:xlink="http://www.w3.org/1999/xlink">
    <!-- Generator: Sketch 39.1 (31720) - http://www.bohemiancoding.com/sketch -->
    <title>Question - simple-line-icons</title>
    <desc>Created with Sketch.</desc>
    <defs></defs>
    <g id="Page-1" stroke="none" stroke-width="1" fill="none" fill-rule="evenodd">
        <g id="Pricing-and-plans" transform="translate(-64.000000, -632.000000)" fill="#0DA1E3">
            <path d="M70,632.75 C69.1718709,632.75 68.3925818,632.906248 67.6621094,633.21875 C66.931637,633.531252 66.2949246,633.958982 65.7519531,634.501953 C65.2089817,635.044925 64.7812516,635.681637 64.46875,636.412109 C64.1562484,637.142582 64,637.921871 64,638.75 C64,639.578129 64.1562484,640.357418 64.46875,641.087891 C64.7812516,641.818363 65.2089817,642.455075 65.7519531,642.998047 C66.2949246,643.541018 66.931637,643.968748 67.6621094,644.28125 C68.3925818,644.593752 69.1718709,644.75 70,644.75 C70.8281291,644.75 71.6074182,644.593752 72.3378906,644.28125 C73.068363,643.968748 73.7050754,643.541018 74.2480469,642.998047 C74.7910183,642.455075 75.2187484,641.818363 75.53125,641.087891 C75.8437516,640.357418 76,639.578129 76,638.75 C76,637.921871 75.8437516,637.142582 75.53125,636.412109 C75.2187484,635.681637 74.7910183,635.044925 74.2480469,634.501953 C73.7050754,633.958982 73.068363,633.531252 72.3378906,633.21875 C71.6074182,632.906248 70.8281291,632.75 70,632.75 L70,632.75 Z M70,644.011719 C69.2734339,644.011719 68.5918001,643.873048 67.9550781,643.595703 C67.3183562,643.318358 66.7636742,642.941409 66.2910156,642.464844 C65.818357,641.988279 65.4433608,641.431644 65.1660156,640.794922 C64.8886705,640.1582 64.75,639.476566 64.75,638.75 C64.75,638.023434 64.8886705,637.3418 65.1660156,636.705078 C65.4433608,636.068356 65.818357,635.513674 66.2910156,635.041016 C66.7636742,634.568357 67.3183562,634.193361 67.9550781,633.916016 C68.5918001,633.63867 69.2734339,633.5 70,633.5 C70.7265661,633.5 71.4081999,633.63867 72.0449219,633.916016 C72.6816438,634.193361 73.2363258,634.568357 73.7089844,635.041016 C74.181643,635.513674 74.5566392,636.068356 74.8339844,636.705078 C75.1113295,637.3418 75.25,638.023434 75.25,638.75 C75.25,639.476566 75.1113295,640.1582 74.8339844,640.794922 C74.5566392,641.431644 74.181643,641.988279 73.7089844,642.464844 C73.2363258,642.941409 72.6816438,643.318358 72.0449219,643.595703 C71.4081999,643.873048 70.7265661,644.011719 70,644.011719 L70,644.011719 Z M69.4492188,642.125 L70.3867188,642.125 L70.3867188,641.175781 L69.4492188,641.175781 L69.4492188,642.125 Z M69.9882812,635.375 C69.7148424,635.375 69.4648449,635.410156 69.2382812,635.480469 C69.0117176,635.550782 68.8085946,635.660156 68.6289062,635.808594 C68.4492179,635.957032 68.3164067,636.164061 68.2304688,636.429688 C68.1445308,636.695314 68.1054687,636.949218 68.1132812,637.191406 L68.125,637.226562 L68.9921875,637.226562 C68.9921875,637.078124 69.0156248,636.914063 69.0625,636.734375 C69.1093752,636.554687 69.1835932,636.429688 69.2851562,636.359375 C69.3789067,636.28125 69.4843744,636.222656 69.6015625,636.183594 C69.7187506,636.144531 69.8476555,636.125 69.9882812,636.125 C70.1523446,636.125 70.2949213,636.148437 70.4160156,636.195312 C70.53711,636.242188 70.6406246,636.308593 70.7265625,636.394531 C70.8125004,636.480469 70.8769529,636.585937 70.9199219,636.710938 C70.9628908,636.835938 70.984375,636.976562 70.984375,637.132812 C70.984375,637.273438 70.9687502,637.40039 70.9375,637.513672 C70.9062498,637.626954 70.8593753,637.734374 70.796875,637.835938 C70.7343747,637.929688 70.648438,638.044921 70.5390625,638.181641 C70.429687,638.31836 70.300782,638.476562 70.1523438,638.65625 C69.996093,638.796876 69.8691411,638.923828 69.7714844,639.037109 C69.6738276,639.150391 69.6093752,639.25 69.578125,639.335938 C69.5390623,639.421875 69.5097657,639.541015 69.4902344,639.693359 C69.470703,639.845704 69.4609375,640.031249 69.4609375,640.25 L70.3632812,640.25 C70.3632812,640.117187 70.3671875,639.998047 70.375,639.892578 C70.3828125,639.787109 70.3945312,639.703125 70.4101562,639.640625 C70.4257813,639.578125 70.4589841,639.509766 70.5097656,639.435547 C70.5605471,639.361328 70.6289058,639.28125 70.7148438,639.195312 C70.8867196,639.023437 71.0449212,638.853516 71.1894531,638.685547 C71.3339851,638.517577 71.460937,638.35547 71.5703125,638.199219 C71.6718755,638.035155 71.7499997,637.863282 71.8046875,637.683594 C71.8593753,637.503905 71.8867188,637.312501 71.8867188,637.109375 C71.8867188,636.835936 71.8457035,636.591798 71.7636719,636.376953 C71.6816402,636.162108 71.5585946,635.980469 71.3945312,635.832031 C71.2226554,635.67578 71.0214855,635.560547 70.7910156,635.486328 C70.5605457,635.412109 70.2929703,635.375 69.9882812,635.375 L69.9882812,635.375 Z" id="Question---simple-line-icons"></path>
        </g>
    </g>
</svg>